<svg id="visual" viewBox="0 0 900 900" width="900" height="900" xmlns="http://www.w3.org/2000/svg" xmlns:xlink="http://www.w3.org/1999/xlink" version="1.1"><g transform="translate(481.8123245961599 446.16354507013926)"><path d="M217.9 -275.2C280.2 -254.6 327 -188 332.3 -120.1C337.6 -52.2 301.5 17 276.1 88.1C250.8 159.1 236.2 232.1 192 266C147.7 300 73.9 295 14.9 274.5C-44.1 254 -88.2 218 -151.4 190.2C-214.7 162.5 -297.1 142.9 -346.4 89.4C-395.6 35.8 -411.8 -51.6 -380.2 -115.7C-348.6 -179.8 -269.2 -220.6 -197.9 -238.2C-126.6 -255.9 -63.3 -250.4 7.2 -260.4C77.8 -270.4 155.6 -295.8 217.9 -275.2" fill="#497cbe"></path></g></svg>