<svg id="visual" viewBox="0 0 900 900" width="900" height="900" xmlns="http://www.w3.org/2000/svg" xmlns:xlink="http://www.w3.org/1999/xlink" version="1.1"><g transform="translate(501.45932162569704 394.68707782352163)"><path d="M266.2 -306.6C322.8 -269.7 331.3 -164.8 334.5 -70.3C337.6 24.2 335.5 108.4 295.7 164.6C255.9 220.7 178.4 249 91.8 302.2C5.1 355.5 -90.6 433.8 -188.6 434.5C-286.6 435.2 -386.9 358.2 -422.5 261.1C-458 164 -428.9 46.7 -385.8 -45.5C-342.6 -137.6 -285.4 -204.8 -218.8 -239.9C-152.1 -275.1 -76.1 -278.2 14.4 -295.3C104.8 -312.4 209.5 -343.5 266.2 -306.6" fill="#497cbe"></path></g></svg>